PathFileType	4	(X/Y/Z)	Patient4_TMGait_0pt8_01_right_32.trc.trc
DataRate	CameraRate	NumFrames	NumMarkers	Units	OrigDataRate	OrigDataStartFrame	OrigNumFrames
86.956521739130	86.956521739130	4	33	mm	86.956521739130	106	       141
Frame#	Time	Sacral			L.Shoulder			Chest			R.Shoulder			Neck			R.ASIS			L.ASIS			R.Thigh.Superior			R.Thigh.Lateral			R.Thigh.Inferior			R.Patella			L.Thigh.Superior			L.Thigh.Lateral			L.Thigh.Inferior			L.Patella			L.Shank.Superior			L.Shank.Lateral			L.Shank.Inferior			R.Shank.Superior			R.Shank.Lateral			R.Shank.Inferior			R.Heel			R.Midfoot.Superior			R.Midfoot.Lateral			R.Toe			L.Heel			L.Midfoot.Lateral			L.Midfoot.Superior			L.Toe			L.Elbow			L.Wrist			R.Elbow			R.Wrist			
		X1	Y1	Z1	X2	Y2	Z2	X3	Y3	Z3	X4	Y4	Z4	X5	Y5	Z5	X6	Y6	Z6	X7	Y7	Z7	X8	Y8	Z8	X9	Y9	Z9	X10	Y10	Z10	X11	Y11	Z11	X12	Y12	Z12	X13	Y13	Z13	X14	Y14	Z14	X15	Y15	Z15	X16	Y16	Z16	X17	Y17	Z17	X18	Y18	Z18	X19	Y19	Z19	X20	Y20	Z20	X21	Y21	Z21	X22	Y22	Z22	X23	Y23	Z23	X24	Y24	Z24	X25	Y25	Z25	X26	Y26	Z26	X27	Y27	Z27	X28	Y28	Z28	X29	Y29	Z29	X30	Y30	Z30	X31	Y31	Z31	X32	Y32	Z32	X33	Y33	Z33	

106	37.007500000000	849.199943774147	1013.315244838960	424.434413592678	1044.085240721713	1445.465538261825	264.790399162390	1137.426354107962	1366.944931180122	427.982124758284	1046.459259532167	1434.714489200268	600.679841421197	1027.912623122495	1500.384208776936	422.288397916477	1071.119543061010	952.386555227521	550.821969789877	1067.933188215919	965.843479708360	276.172244883295	1164.368886583961	799.208809841230	527.462217841324	1139.138540311109	676.023614362804	603.067402753163	1233.220741351204	643.763971264868	525.998194704738	1263.977139302304	534.669815659270	552.394169017587	1098.896389979798	745.804782911158	308.245429252103	996.199281077572	637.850794613470	249.094961189899	1070.721384626845	552.381456670047	313.898900689673	1063.808986553581	484.090703639915	325.434468543755	1033.458719522876	414.536084517947	318.632819510024	935.823471658564	305.176539532460	273.836077640716	980.971503545253	192.304440548647	345.356284997543	1197.824574613091	451.176538277335	560.936168554170	1081.284971315337	395.708506889589	617.970472206830	1086.991641489315	283.265590275060	574.189466206166	900.200203727145	197.050020254489	539.912002135898	1072.140633038374	155.120739971094	591.254690044495	960.304617516359	142.382127189341	616.507896187334	1143.690127257681	45.846708038320	618.437771050319	846.212649998497	40.530950413307	395.029025981413	915.773129391428	36.695133832987	310.945350305624	1001.560222467309	96.604967526242	333.609023136927	1127.450750680768	40.804313017123	297.334123882187	1074.310106144467	1111.596457939792	109.055385827730	1292.741741965217	969.861739764271	121.343283364581	1022.551823643537	1078.671496508297	699.272489735735	1133.550374661067	842.524827673008	714.199914833757	
107	37.019000000000	848.669164184237	1013.105166841428	423.793134018561	1046.174523066334	1445.243184159547	264.818009725911	1137.855351278651	1366.383244853590	428.745304506069	1045.597539302085	1434.258094971242	600.692497538249	1028.616402468424	1500.098207018745	422.153483531251	1070.282388650636	952.624286186954	551.571127993919	1067.979723022280	965.425603854430	276.710357957385	1164.540132782322	801.292471665247	528.004302063270	1140.619051213469	677.479006589665	603.355788443888	1235.016014305645	646.341470562120	526.546265933169	1267.610368847466	539.077672524539	552.530632097811	1096.268431303341	744.398140343713	309.184423937528	992.535971114104	637.607431783476	249.130312799804	1065.460699751719	551.253820350044	314.319130644621	1057.589604593509	483.168308596552	325.685254463994	1026.910495032460	413.927579970600	318.801431443813	928.537689921936	305.283619675252	273.904909389586	972.599861136432	192.088583972724	345.489684065148	1205.819539385575	453.414695106506	561.224669186208	1094.070116208230	391.178677943382	620.144664779758	1105.445107488359	279.387975258858	575.627924261445	923.606973807980	182.496006182182	544.278461353890	1098.516348781467	150.693617922659	592.797740267710	988.008038248615	131.506376714168	619.822180074676	1176.568581180126	45.726105784283	618.537596906478	837.041915839197	40.793796972883	395.002933231996	906.582237437274	36.823292932515	310.984756207079	992.488503076846	96.595262398157	333.611650094123	1118.233993563811	40.623277901907	297.269107793804	1083.999954321876	1114.055655062571	106.841092752332	1309.750543019900	985.197747702098	121.563339857787	1013.938151768888	1079.089530779985	699.713772354900	1107.415278282621	835.221898288244	715.674950017114	
108	37.030500000000	848.267539200403	1012.789997715172	423.351331305161	1048.212709473534	1444.918101616069	265.050353375688	1138.402129202099	1365.687773606670	429.591001618367	1045.022562416593	1433.645216391120	600.871527871221	1029.421265694905	1499.679802410325	422.223342536256	1069.636434060485	952.650227408752	552.346829095118	1068.030512191744	964.905314018238	277.277034519960	1164.421331405847	802.557550479367	528.616566518696	1141.224011242591	678.215758504516	603.700278850682	1235.804303539635	647.854807887026	527.160426642488	1269.934563499044	542.665610831018	552.611548709535	1093.707636466527	742.961513191424	310.049497311474	988.919335867780	637.317957534908	249.216624427716	1060.312898639137	550.109693587661	314.712994466711	1051.520556586551	482.230341726249	325.920158723567	1020.474053485138	413.282307188783	318.993097855224	921.335030835593	305.398227237958	274.003509283563	964.283472924014	191.870422084956	345.644683182467	1212.827612977456	455.170835514051	561.555465979284	1106.724492506592	386.195861968017	622.669356957158	1123.945351180161	275.463503743156	577.329891780700	948.159817411346	167.666872527557	549.225516052594	1125.391909146945	146.595437838672	594.537197782264	1016.808852924286	120.865929211127	623.601494581029	1209.928826157240	46.695116824349	618.823724350835	827.887161301881	41.110185140927	394.977570180066	897.398349639546	36.987923721851	311.025735876418	983.435450390022	96.588306398749	333.622638947846	1109.013601460505	40.432920663911	297.203645296238	1093.295179919353	1116.537805630061	105.032338445772	1325.517972413989	1000.837382300109	122.210844874272	1004.876795812221	1079.643130325882	700.073594165993	1081.696543224156	829.861168883379	716.665485282208	
109	37.042000000000	848.024118503534	1012.372749703867	423.111855600307	1050.168666526859	1444.495136396487	265.482128306837	1139.062910522076	1364.870601534539	430.507550571525	1044.747239187737	1432.895042720792	601.214769610023	1030.322943092025	1499.135998981804	422.491196477475	1069.207614216603	952.467264159851	553.138075628524	1068.109071476072	964.291950410914	277.861416656565	1164.015894970824	802.940969552353	529.298519714874	1140.940218633781	678.203572880738	604.144157026174	1235.556975051741	648.246582416324	527.841233043205	1270.943525856710	545.378444977975	552.645829474391	1091.229112603404	741.499057098413	310.817132834267	985.338979484996	636.995012955453	249.352776444202	1055.272950480312	548.955735028619	315.071303450564	1045.587608736186	481.276775437774	326.143523051197	1014.137638037111	412.606744217494	319.204953678954	914.206542382488	305.530047809525	274.128714851381	956.021881384527	191.658426537424	345.812908778803	1218.795452509132	456.446165992466	561.953279845475	1119.116728663069	380.899662505666	625.457508053745	1142.330573869328	271.647976866418	579.232003774709	973.742373253130	152.827531053583	554.497334338295	1152.525896031596	143.073330751213	596.421379259492	1046.468547013266	110.741234802487	627.662081807400	1243.436913571890	49.025212157926	619.324584972571	818.743475141132	41.490751754316	394.949849766377	888.222214853058	37.195601508001	311.064131078065	974.399737286779	96.586492675446	333.637993434730	1099.788891387921	40.233216979680	297.137621993009	1102.180834052748	1119.007491429300	103.619680683177	1340.007971316048	1016.640399053814	123.257131086592	995.329454586593	1080.414810631525	700.345375240096	1056.590009743881	826.303749765757	717.204548704079	
